<svg xmlns="http://www.w3.org/2000/svg" xml:space="preserve" width="800" height="800" viewBox="0 0 31.445 31.445" fill="white">
  <path d="M7.592 16.86c-1.77 0-3.203 1.434-3.203 3.204a3.203 3.203 0 1 0 3.203-3.204zm0 4.172c-.532 0-.968-.434-.968-.967s.436-.967.968-.967a.968.968 0 0 1 0 1.934z"/>
	<path d="m30.915 17.439-.524-4.262a1.57 1.57 0 0 0-1.643-1.373l-1.148.064-3.564-3.211a1.865 1.865 0 0 0-1.249-.479l-7.241-.001a7.133 7.133 0 0 0-4.468 1.573l-4.04 3.246-5.433 1.358a1.568 1.568 0 0 0-1.188 1.521v1.566a.415.415 0 0 0-.417.415v2.071c0 .295.239.534.534.534h3.067c-.013-.133-.04-.26-.04-.396 0-2.227 1.804-4.029 4.03-4.029s4.029 1.802 4.029 4.029c0 .137-.028.264-.041.396h8.493c-.012-.133-.039-.26-.039-.396a4.028 4.028 0 1 1 8.057 0c0 .137-.026.264-.04.396h2.861a.533.533 0 0 0 .533-.534v-1.953a.528.528 0 0 0-.529-.535zm-10.747-5.237-10.102.511L12 11.158a5.911 5.911 0 0 1 3.706-1.305h4.462v2.349zm1.678-.085V9.854h.657c.228 0 .447.084.616.237l2.062 1.856-3.335.17z"/>
	<path d="M24.064 16.86c-1.77 0-3.203 1.434-3.203 3.204a3.203 3.203 0 1 0 3.203-3.204zm0 4.172c-.533 0-.967-.434-.967-.967s.434-.967.967-.967c.531 0 .967.434.967.967s-.435.967-.967.967z"/>
</svg>