<svg version="1.2" xmlns="http://www.w3.org/2000/svg" viewBox="0 0 32 32" width="32" height="32">
	<title>car-svgrepo-com-svg</title>
	<style>
		.s0 { fill: #000000 } 
	</style>
	<g id="Layer">
		<filter id="f0">
			<feFlood flood-color="#ffffff" flood-opacity="1" />
			<feBlend mode="normal" in2="SourceGraphic"/>
			<feComposite in2="SourceAlpha" operator="in" />
		</filter>
		<g id="Layer" filter="url(#f0)">
			<path id="Layer" fill-rule="evenodd" class="s0" d="m10.8 20.1c0 1.7-1.4 3.2-3.2 3.2-1.8 0-3.2-1.5-3.2-3.2 0-1.8 1.4-3.2 3.2-3.2 1.8 0 3.2 1.4 3.2 3.2zm-2.2 0c0-0.6-0.5-1-1-1-0.5 0-1 0.4-1 1 0 0.5 0.5 0.9 1 0.9 0.5 0 1-0.4 1-0.9z"/>
			<path id="Layer" fill-rule="evenodd" class="s0" d="m31.4 18v1.9c0 0.3-0.2 0.6-0.5 0.6h-2.8q0-0.2 0-0.4c0-2.3-1.8-4.1-4-4.1-2.3 0-4.1 1.8-4.1 4.1q0 0.2 0.1 0.4h-8.5q0-0.2 0-0.4c0-2.3-1.8-4.1-4-4.1-2.2 0-4 1.8-4 4.1q0 0.2 0 0.4h-3.1c-0.3 0-0.5-0.3-0.5-0.6v-2c0-0.3 0.2-0.5 0.4-0.5v-1.5c0-0.7 0.5-1.4 1.2-1.5l5.4-1.4 4.1-3.2c1.2-1.1 2.8-1.6 4.4-1.6h7.3c0.4 0 0.9 0.1 1.2 0.5l3.6 3.2 1.1-0.1c0.9 0 1.6 0.6 1.7 1.4l0.5 4.2c0.3 0 0.5 0.3 0.5 0.6zm-11.2-8.1h-4.5c-1.3 0-2.6 0.4-3.7 1.3l-1.9 1.5 10.1-0.5zm5 2.1l-2.1-1.9q-0.2-0.2-0.6-0.2h-0.7v2.3z"/>
			<path id="Layer" fill-rule="evenodd" class="s0" d="m27.3 20.1c0 1.7-1.5 3.2-3.2 3.2-1.8 0-3.2-1.5-3.2-3.2 0-1.8 1.4-3.2 3.2-3.2 1.7 0 3.2 1.4 3.2 3.2zm-2.3 0c0-0.6-0.4-1-0.9-1-0.6 0-1 0.4-1 1 0 0.5 0.4 0.9 1 0.9 0.5 0 0.9-0.4 0.9-0.9z"/>
		</g>
	</g>
</svg>