<svg version="1.2" xmlns="http://www.w3.org/2000/svg" viewBox="0 0 32 33" width="32" height="33">
	<title>shaking-hands-svgrepo-com-svg</title>
	<style>
		.s0 { fill: #ffffff } 
	</style>
	<g id="Layer">
		<path id="Layer" fill-rule="evenodd" class="s0" d="m30.2 18c1.5 1.5 1.6 3.8 0.3 5.1-0.5 0.6-1.4 0.9-2.2 0.9 0 0.8-0.3 1.7-0.9 2.3-0.6 0.6-1.4 0.9-2.3 0.8q-0.3 0-0.6 0c0 0.7-0.3 1.3-0.8 1.8-0.6 0.6-1.4 0.9-2.3 0.9q-0.3 0-0.6-0.1c-0.1 0.7-0.4 1.3-0.9 1.7-0.6 0.6-1.4 0.9-2.3 0.9-0.6 0-1.3-0.2-1.9-0.6-0.6 0.4-1.2 0.6-1.9 0.6-0.9 0-1.7-0.3-2.3-0.9-0.5-0.4-0.7-1-0.8-1.7q-0.4 0.1-0.7 0.1c-0.9 0-1.7-0.3-2.3-0.9-0.5-0.5-0.8-1.1-0.8-1.8q-0.3 0-0.6 0c-0.9 0.1-1.7-0.2-2.3-0.8-0.6-0.6-0.9-1.5-0.8-2.3-0.9 0-1.7-0.3-2.3-0.9-1.3-1.3-1.2-3.6 0.3-5.1l0.8-0.7-1.9-4.9c-0.2-0.5-0.1-1.1 0.3-1.4l9.5-9.5c0.2-0.3 0.6-0.4 0.9-0.4q0.4 0 0.8 0.3l4.1 2.7 4.1-2.7q0.4-0.3 0.8-0.3c0.4 0 0.7 0.1 1 0.4l9.5 9.5c0.3 0.3 0.4 0.9 0.2 1.4l-1.9 4.9zm-0.9 0.9l-2.9-2.8-3.8-3.9-5.9-5.9-5.8-3.9-9.5 9.5 2.4 6.2 5.3 5.3 5 5 1.7 1.7c0.5 0.5 1.2 0.8 1.8 0.8 0.5 0 1-0.2 1.4-0.5 0.7-0.8 0.6-2.2-0.4-3.1l-1.5-1.6c-0.1-0.1-0.1-0.2 0-0.3q0.1-0.1 0.2-0.1 0.1 0 0.2 0.1l2.1 2.1c0.5 0.5 1.2 0.8 1.8 0.8 0.5 0.1 1-0.1 1.3-0.5 0.8-0.7 0.7-2.1-0.3-3.1l-2.1-2.1c-0.1-0.1-0.1-0.3 0-0.4 0.1-0.1 0.2-0.1 0.3 0l2.7 2.7c0.5 0.5 1.2 0.8 1.8 0.8 0.5 0 1-0.1 1.3-0.5 0.8-0.8 0.7-2.2-0.3-3.1l-2.7-2.7c-0.1-0.1-0.1-0.3 0-0.3 0.1-0.1 0.3-0.1 0.4-0.1l2.7 2.7c0.5 0.5 1.1 0.8 1.8 0.8 0.5 0.1 0.9-0.1 1.3-0.5 0.8-0.7 0.6-2.1-0.3-3.1z"/>
	</g>
</svg>