<svg xmlns="http://www.w3.org/2000/svg" xml:space="preserve" width="800" height="800" viewBox="0 0 31.424 31.423" fill="black">
  <path d="m29.415 16.271 1.911-4.874a1.325 1.325 0 0 0-.275-1.428L21.556.475a1.287 1.287 0 0 0-.955-.373c-.26.008-.523.09-.759.248l-4.129 2.796L11.583.35a1.453 1.453 0 0 0-.759-.248 1.285 1.285 0 0 0-.955.373L.373 9.969a1.326 1.326 0 0 0-.275 1.428l1.911 4.874-.768.768c-1.497 1.497-1.663 3.767-.37 5.059.59.59 1.404.9 2.295.873-.024.859.261 1.685.869 2.292.59.59 1.406.899 2.296.873.182-.004.363-.023.543-.057.073.686.355 1.328.852 1.824.589.589 1.405.898 2.295.873a3.64 3.64 0 0 0 .647-.078c.085.658.364 1.271.843 1.75.589.588 1.405.897 2.297.873.656-.021 1.31-.237 1.901-.592.592.354 1.248.572 1.904.592.891.025 1.707-.284 2.296-.873a2.994 2.994 0 0 0 .843-1.75c.214.045.431.072.647.078.891.025 1.705-.284 2.295-.873.497-.497.777-1.14.852-1.824.181.033.361.053.543.057.891.026 1.707-.282 2.296-.873.608-.608.895-1.433.869-2.292.891.027 1.705-.283 2.295-.873 1.293-1.292 1.127-3.562-.37-5.059l-.764-.768zm.143 4.832c-.353.353-.833.516-1.343.501-.613-.019-1.264-.294-1.783-.814l-2.681-2.679a.24.24 0 0 0-.341.008c-.098.097-.103.25-.009.342l2.68 2.681c.95.949 1.089 2.35.312 3.126-.352.353-.833.517-1.342.501-.613-.019-1.265-.294-1.784-.813l-2.68-2.68c-.092-.092-.245-.088-.342.009s-.102.25-.009.342l2.153 2.154c.95.95 1.089 2.349.312 3.125-.353.353-.833.516-1.342.502-.613-.02-1.266-.294-1.785-.814l-2.153-2.153a.232.232 0 0 0-.169-.067.255.255 0 0 0-.173.076.242.242 0 0 0-.009.342l1.533 1.534c.95.949 1.09 2.349.312 3.126-.353.352-.833.517-1.342.501-.613-.018-1.266-.294-1.784-.813l-1.701-1.7-4.982-4.979-5.319-5.319-2.42-6.173 9.495-9.495 5.807 3.931 5.894 5.894L26.4 15.13l2.846 2.847c.95.948 1.089 2.349.312 3.126z"/>
</svg>